<mxfile host="app.diagrams.net" modified="2024-05-03T00:07:32.046Z" agent="Mozilla/5.0 (Macintosh; Intel Mac OS X 10_15_7) AppleWebKit/537.36 (KHTML, like Gecko) Chrome/124.0.0.0 Safari/537.36" etag="ofP6gvhmRF8wqou8DWgM" version="24.2.3" type="github">
  <diagram name="Page-1" id="l9dKr82vqKXm1B0QWiam">
    <mxGraphModel dx="1632" dy="949" grid="1" gridSize="10" guides="1" tooltips="1" connect="1" arrows="1" fold="1" page="1" pageScale="1" pageWidth="850" pageHeight="1100" math="0" shadow="0">
      <root>
        <mxCell id="0" />
        <mxCell id="1" parent="0" />
        <mxCell id="Rsp6KLCIQIFqLSnZ3U1q-43" value="" style="rounded=0;whiteSpace=wrap;html=1;fillColor=#f8cecc;strokeColor=#b85450;fontSize=19;fontStyle=0" vertex="1" parent="1">
          <mxGeometry y="200" width="840" height="1000" as="geometry" />
        </mxCell>
        <mxCell id="Rsp6KLCIQIFqLSnZ3U1q-4" value="" style="rounded=0;whiteSpace=wrap;html=1;fontSize=19;fillColor=#d5e8d4;strokeColor=#82b366;fontStyle=0" vertex="1" parent="1">
          <mxGeometry x="600" y="600" width="200" height="200" as="geometry" />
        </mxCell>
        <mxCell id="Rsp6KLCIQIFqLSnZ3U1q-1" value="name = &quot;AG&quot;" style="rounded=0;whiteSpace=wrap;html=1;fontSize=19;fillColor=#ffe6cc;strokeColor=#d79b00;fontStyle=0" vertex="1" parent="1">
          <mxGeometry x="640" y="640" width="120" height="40" as="geometry" />
        </mxCell>
        <mxCell id="Rsp6KLCIQIFqLSnZ3U1q-2" value="mother = null" style="rounded=0;whiteSpace=wrap;html=1;fontSize=19;fillColor=#dae8fc;strokeColor=#6c8ebf;fontStyle=0" vertex="1" parent="1">
          <mxGeometry x="640" y="680" width="120" height="40" as="geometry" />
        </mxCell>
        <mxCell id="Rsp6KLCIQIFqLSnZ3U1q-3" value="father = null" style="rounded=0;whiteSpace=wrap;html=1;fontSize=19;fontStyle=0" vertex="1" parent="1">
          <mxGeometry x="640" y="720" width="120" height="40" as="geometry" />
        </mxCell>
        <mxCell id="Rsp6KLCIQIFqLSnZ3U1q-5" value="" style="rounded=0;whiteSpace=wrap;html=1;fontSize=19;fillColor=#d5e8d4;strokeColor=#82b366;fontStyle=0" vertex="1" parent="1">
          <mxGeometry x="600" y="840" width="200" height="200" as="geometry" />
        </mxCell>
        <mxCell id="Rsp6KLCIQIFqLSnZ3U1q-6" value="name = &quot;ICG&quot;" style="rounded=0;whiteSpace=wrap;html=1;fontSize=19;fillColor=#ffe6cc;strokeColor=#d79b00;fontStyle=0" vertex="1" parent="1">
          <mxGeometry x="640" y="880" width="120" height="40" as="geometry" />
        </mxCell>
        <mxCell id="Rsp6KLCIQIFqLSnZ3U1q-7" value="mother = null" style="rounded=0;whiteSpace=wrap;html=1;fontSize=19;fillColor=#dae8fc;strokeColor=#6c8ebf;fontStyle=0" vertex="1" parent="1">
          <mxGeometry x="640" y="920" width="120" height="40" as="geometry" />
        </mxCell>
        <mxCell id="Rsp6KLCIQIFqLSnZ3U1q-8" value="father = null" style="rounded=0;whiteSpace=wrap;html=1;fontSize=19;fillColor=#dae8fc;strokeColor=#6c8ebf;fontStyle=0" vertex="1" parent="1">
          <mxGeometry x="640" y="960" width="120" height="40" as="geometry" />
        </mxCell>
        <mxCell id="Rsp6KLCIQIFqLSnZ3U1q-9" value="" style="rounded=0;whiteSpace=wrap;html=1;fontSize=19;fillColor=#d5e8d4;strokeColor=#82b366;fontStyle=0" vertex="1" parent="1">
          <mxGeometry x="40" y="480" width="200" height="200" as="geometry" />
        </mxCell>
        <mxCell id="Rsp6KLCIQIFqLSnZ3U1q-10" value="name = &quot;NZ&quot;" style="rounded=0;whiteSpace=wrap;html=1;fontSize=19;fillColor=#ffe6cc;strokeColor=#d79b00;fontStyle=0" vertex="1" parent="1">
          <mxGeometry x="80" y="520" width="120" height="40" as="geometry" />
        </mxCell>
        <mxCell id="Rsp6KLCIQIFqLSnZ3U1q-11" value="mother" style="rounded=0;whiteSpace=wrap;html=1;fontSize=19;fillColor=#dae8fc;strokeColor=#6c8ebf;fontStyle=0" vertex="1" parent="1">
          <mxGeometry x="80" y="560" width="120" height="40" as="geometry" />
        </mxCell>
        <mxCell id="Rsp6KLCIQIFqLSnZ3U1q-12" value="father" style="rounded=0;whiteSpace=wrap;html=1;fontSize=19;fillColor=#dae8fc;strokeColor=#6c8ebf;fontStyle=0" vertex="1" parent="1">
          <mxGeometry x="80" y="600" width="120" height="40" as="geometry" />
        </mxCell>
        <mxCell id="Rsp6KLCIQIFqLSnZ3U1q-13" value="" style="rounded=0;whiteSpace=wrap;html=1;fontSize=19;fillColor=#d5e8d4;strokeColor=#82b366;fontStyle=0" vertex="1" parent="1">
          <mxGeometry x="320" y="600" width="200" height="200" as="geometry" />
        </mxCell>
        <mxCell id="Rsp6KLCIQIFqLSnZ3U1q-14" value="name = &quot;G2&quot;" style="rounded=0;whiteSpace=wrap;html=1;fontSize=19;fontStyle=0" vertex="1" parent="1">
          <mxGeometry x="360" y="640" width="120" height="40" as="geometry" />
        </mxCell>
        <mxCell id="Rsp6KLCIQIFqLSnZ3U1q-15" value="mother" style="rounded=0;whiteSpace=wrap;html=1;fontSize=19;fillColor=#dae8fc;strokeColor=#6c8ebf;fontStyle=0" vertex="1" parent="1">
          <mxGeometry x="360" y="680" width="120" height="40" as="geometry" />
        </mxCell>
        <mxCell id="Rsp6KLCIQIFqLSnZ3U1q-16" value="father" style="rounded=0;whiteSpace=wrap;html=1;fontSize=19;fillColor=#dae8fc;strokeColor=#6c8ebf;fontStyle=0" vertex="1" parent="1">
          <mxGeometry x="360" y="720" width="120" height="40" as="geometry" />
        </mxCell>
        <mxCell id="Rsp6KLCIQIFqLSnZ3U1q-21" value="" style="rounded=0;whiteSpace=wrap;html=1;fontSize=19;fillColor=#d5e8d4;strokeColor=#82b366;fontStyle=0" vertex="1" parent="1">
          <mxGeometry x="320" y="360" width="200" height="200" as="geometry" />
        </mxCell>
        <mxCell id="Rsp6KLCIQIFqLSnZ3U1q-22" value="name = &quot;G1&quot;" style="rounded=0;whiteSpace=wrap;html=1;fontSize=19;fillColor=#ffe6cc;strokeColor=#d79b00;fontStyle=0" vertex="1" parent="1">
          <mxGeometry x="360" y="400" width="120" height="40" as="geometry" />
        </mxCell>
        <mxCell id="Rsp6KLCIQIFqLSnZ3U1q-23" value="mother = null" style="rounded=0;whiteSpace=wrap;html=1;fontSize=19;fillColor=#dae8fc;strokeColor=#6c8ebf;fontStyle=0" vertex="1" parent="1">
          <mxGeometry x="360" y="440" width="120" height="40" as="geometry" />
        </mxCell>
        <mxCell id="Rsp6KLCIQIFqLSnZ3U1q-24" value="father = null" style="rounded=0;whiteSpace=wrap;html=1;fontSize=19;fillColor=#dae8fc;strokeColor=#6c8ebf;fontStyle=0" vertex="1" parent="1">
          <mxGeometry x="360" y="480" width="120" height="40" as="geometry" />
        </mxCell>
        <mxCell id="Rsp6KLCIQIFqLSnZ3U1q-25" value="wife" style="rounded=0;whiteSpace=wrap;html=1;fontSize=19;fillColor=#dae8fc;strokeColor=#6c8ebf;fontStyle=0" vertex="1" parent="1">
          <mxGeometry x="360" y="240" width="120" height="40" as="geometry" />
        </mxCell>
        <mxCell id="Rsp6KLCIQIFqLSnZ3U1q-26" value="" style="endArrow=classic;html=1;rounded=0;fontSize=19;fontStyle=0" edge="1" parent="1">
          <mxGeometry width="50" height="50" relative="1" as="geometry">
            <mxPoint x="440" y="260" as="sourcePoint" />
            <mxPoint x="440" y="360" as="targetPoint" />
          </mxGeometry>
        </mxCell>
        <mxCell id="Rsp6KLCIQIFqLSnZ3U1q-27" value="mum" style="rounded=0;whiteSpace=wrap;html=1;fontSize=19;fillColor=#dae8fc;strokeColor=#6c8ebf;fontStyle=0" vertex="1" parent="1">
          <mxGeometry x="640" y="480" width="120" height="40" as="geometry" />
        </mxCell>
        <mxCell id="Rsp6KLCIQIFqLSnZ3U1q-28" value="" style="endArrow=classic;html=1;rounded=0;entryX=0.59;entryY=-0.02;entryDx=0;entryDy=0;entryPerimeter=0;fontSize=19;fontStyle=0" edge="1" parent="1">
          <mxGeometry width="50" height="50" relative="1" as="geometry">
            <mxPoint x="722" y="500" as="sourcePoint" />
            <mxPoint x="720" y="596" as="targetPoint" />
          </mxGeometry>
        </mxCell>
        <mxCell id="Rsp6KLCIQIFqLSnZ3U1q-30" value="dad" style="whiteSpace=wrap;html=1;fontSize=19;fillColor=#dae8fc;strokeColor=#6c8ebf;fontStyle=0" vertex="1" parent="1">
          <mxGeometry x="640" y="1120" width="120" height="40" as="geometry" />
        </mxCell>
        <mxCell id="Rsp6KLCIQIFqLSnZ3U1q-32" value="" style="endArrow=classic;html=1;rounded=0;entryX=0.6;entryY=1.01;entryDx=0;entryDy=0;entryPerimeter=0;fontSize=19;fontStyle=0" edge="1" parent="1" target="Rsp6KLCIQIFqLSnZ3U1q-5">
          <mxGeometry width="50" height="50" relative="1" as="geometry">
            <mxPoint x="720" y="1140" as="sourcePoint" />
            <mxPoint x="770" y="1090" as="targetPoint" />
          </mxGeometry>
        </mxCell>
        <mxCell id="Rsp6KLCIQIFqLSnZ3U1q-33" value="" style="endArrow=classic;html=1;rounded=0;entryX=-0.025;entryY=0.8;entryDx=0;entryDy=0;entryPerimeter=0;fontSize=19;fontStyle=0" edge="1" parent="1">
          <mxGeometry width="50" height="50" relative="1" as="geometry">
            <mxPoint x="460" y="700" as="sourcePoint" />
            <mxPoint x="605" y="640" as="targetPoint" />
          </mxGeometry>
        </mxCell>
        <mxCell id="Rsp6KLCIQIFqLSnZ3U1q-34" value="" style="endArrow=classic;html=1;rounded=0;entryX=-0.025;entryY=0.4;entryDx=0;entryDy=0;entryPerimeter=0;fontSize=19;fontStyle=0" edge="1" parent="1">
          <mxGeometry width="50" height="50" relative="1" as="geometry">
            <mxPoint x="455" y="740" as="sourcePoint" />
            <mxPoint x="600" y="800" as="targetPoint" />
          </mxGeometry>
        </mxCell>
        <mxCell id="Rsp6KLCIQIFqLSnZ3U1q-35" value="me" style="whiteSpace=wrap;html=1;fontSize=19;fillColor=#dae8fc;strokeColor=#6c8ebf;fontStyle=0" vertex="1" parent="1">
          <mxGeometry x="360" y="878" width="120" height="40" as="geometry" />
        </mxCell>
        <mxCell id="Rsp6KLCIQIFqLSnZ3U1q-36" value="" style="endArrow=classic;html=1;rounded=0;entryX=0.6;entryY=1.01;entryDx=0;entryDy=0;entryPerimeter=0;fontSize=19;fontStyle=0" edge="1" parent="1">
          <mxGeometry width="50" height="50" relative="1" as="geometry">
            <mxPoint x="440" y="898" as="sourcePoint" />
            <mxPoint x="440" y="800" as="targetPoint" />
          </mxGeometry>
        </mxCell>
        <mxCell id="Rsp6KLCIQIFqLSnZ3U1q-38" value="" style="endArrow=classic;html=1;rounded=0;entryX=-0.01;entryY=0.81;entryDx=0;entryDy=0;entryPerimeter=0;fontSize=19;fontStyle=0" edge="1" parent="1" target="Rsp6KLCIQIFqLSnZ3U1q-21">
          <mxGeometry width="50" height="50" relative="1" as="geometry">
            <mxPoint x="170" y="580" as="sourcePoint" />
            <mxPoint x="220" y="530" as="targetPoint" />
          </mxGeometry>
        </mxCell>
        <mxCell id="Rsp6KLCIQIFqLSnZ3U1q-40" value="" style="endArrow=classic;html=1;rounded=0;entryX=0;entryY=0.41;entryDx=0;entryDy=0;entryPerimeter=0;fontSize=19;fontStyle=0" edge="1" parent="1" target="Rsp6KLCIQIFqLSnZ3U1q-13">
          <mxGeometry width="50" height="50" relative="1" as="geometry">
            <mxPoint x="170" y="620" as="sourcePoint" />
            <mxPoint x="220" y="570" as="targetPoint" />
          </mxGeometry>
        </mxCell>
        <mxCell id="Rsp6KLCIQIFqLSnZ3U1q-41" value="kid" style="whiteSpace=wrap;html=1;fontSize=19;fillColor=#dae8fc;strokeColor=#6c8ebf;fontStyle=0" vertex="1" parent="1">
          <mxGeometry x="80" y="758" width="120" height="40" as="geometry" />
        </mxCell>
        <mxCell id="Rsp6KLCIQIFqLSnZ3U1q-42" value="" style="endArrow=classic;html=1;rounded=0;entryX=0.6;entryY=1.01;entryDx=0;entryDy=0;entryPerimeter=0;fontSize=19;fontStyle=0" edge="1" parent="1">
          <mxGeometry width="50" height="50" relative="1" as="geometry">
            <mxPoint x="160" y="778" as="sourcePoint" />
            <mxPoint x="160" y="680" as="targetPoint" />
          </mxGeometry>
        </mxCell>
      </root>
    </mxGraphModel>
  </diagram>
</mxfile>
